<svg width="588" height="140" viewBox="0 0 588 140" fill="none" xmlns="http://www.w3.org/2000/svg">
  <path d="M583.776 107.901L527.059 140V115.005L562.398 95.5526L583.776 107.901V107.901ZM587.662 104.386V37.2689L566.915 49.2641V92.4097L587.662 104.386V104.386ZM465.36 107.901L522.077 140V115.005L486.719 95.5526L465.36 107.901ZM461.474 104.386V37.2689L482.22 49.2641V92.4097L461.474 104.386ZM463.91 32.9171L522.077 0V24.1578L484.804 44.6706L484.507 44.8379L463.91 32.9171V32.9171ZM585.226 32.9171L527.059 0V24.1578L564.331 44.652L564.629 44.8193L585.226 32.9171Z" fill="#8ED6FB"/>
  <path d="M522.077 109.501L487.203 90.3082V52.3141L522.077 72.4549V109.501ZM527.059 109.501L561.933 90.3268V52.3141L527.059 72.4549V109.501ZM489.563 47.9251L524.568 28.677L559.573 47.9251L524.568 68.1403L489.563 47.9251V47.9251Z" fill="#1C78C0"/>
  <path d="M402.674 74.241V65.6936H416.101V52.2667H424.714V65.6936H438.141V74.241H424.714V87.7334H416.101V74.241H402.674Z" fill="black"/>
  <path d="M379.341 70.016C379.341 59.6017 366.299 49.7322 346.304 43.6118C350.918 23.2319 348.867 7.01762 339.831 1.8265C337.748 0.608834 335.312 0.0320435 332.653 0.0320435V7.17784C334.127 7.17784 335.313 7.46624 336.306 8.01099C340.664 10.5104 342.554 20.0275 341.08 32.2682C340.728 35.2804 340.151 38.4527 339.446 41.6892C333.166 40.1511 326.308 38.9654 319.098 38.1964C314.772 32.2682 310.286 26.8849 305.768 22.1744C316.214 12.4651 326.02 7.1458 332.685 7.1458V0C323.873 0 312.337 6.28061 300.673 17.1756C289.009 6.3447 277.473 0.128176 268.661 0.128176V7.27397C275.294 7.27397 285.132 12.5612 295.578 22.2065C291.092 26.9169 286.606 32.2682 282.344 38.1964C275.102 38.9654 268.245 40.1511 261.964 41.7212C261.227 38.5168 260.682 35.4086 260.298 32.4285C258.792 20.1877 260.65 10.6706 264.976 8.13916C265.937 7.56237 267.187 7.30602 268.661 7.30602V0.16022C265.969 0.16022 263.534 0.73701 261.419 1.95468C252.415 7.1458 250.396 23.328 255.042 43.6438C235.111 49.7963 222.133 59.6338 222.133 70.016C222.133 80.4303 235.175 90.2998 255.171 96.4202C250.556 116.8 252.607 133.014 261.643 138.206C263.726 139.423 266.162 140 268.853 140C277.665 140 289.201 133.719 300.865 122.824C312.529 133.655 324.065 139.872 332.877 139.872C335.569 139.872 338.004 139.295 340.119 138.077C349.123 132.886 351.142 116.704 346.496 96.3882C366.363 90.2678 379.341 80.3983 379.341 70.016ZM337.62 48.6427C336.434 52.7764 334.96 57.0382 333.294 61.3001C331.98 58.7365 330.602 56.173 329.096 53.6095C327.622 51.046 326.052 48.5466 324.482 46.1112C329.032 46.7842 333.422 47.6173 337.62 48.6427ZM322.944 82.7695C320.444 87.0954 317.881 91.1971 315.221 95.0103C310.446 95.4269 305.608 95.6512 300.737 95.6512C295.898 95.6512 291.06 95.4269 286.317 95.0423C283.658 91.2291 281.062 87.1595 278.563 82.8656C276.127 78.6679 273.916 74.406 271.898 70.1121C273.884 65.8183 276.127 61.5244 278.531 57.3266C281.03 53.0007 283.594 48.8991 286.253 45.0858C291.028 44.6693 295.866 44.4449 300.737 44.4449C305.576 44.4449 310.414 44.6693 315.157 45.0538C317.817 48.867 320.412 52.9366 322.912 57.2305C325.347 61.4282 327.558 65.6901 329.577 69.984C327.558 74.2779 325.347 78.5717 322.944 82.7695ZM333.294 78.6038C335.024 82.8977 336.498 87.1916 337.716 91.3573C333.518 92.3827 329.096 93.2479 324.514 93.9208C326.084 91.4534 327.654 88.9219 329.128 86.3264C330.602 83.7629 331.98 81.1673 333.294 78.6038ZM300.801 112.795C297.821 109.718 294.841 106.29 291.893 102.541C294.777 102.669 297.725 102.765 300.705 102.765C303.717 102.765 306.697 102.701 309.613 102.541C306.729 106.29 303.749 109.718 300.801 112.795ZM276.96 93.9208C272.41 93.2479 268.02 92.4147 263.822 91.3893C265.008 87.2557 266.482 82.9938 268.148 78.732C269.462 81.2955 270.84 83.859 272.346 86.4225C273.852 88.986 275.39 91.4855 276.96 93.9208ZM300.641 27.2374C303.621 30.3136 306.601 33.7423 309.549 37.4914C306.665 37.3632 303.717 37.2671 300.737 37.2671C297.725 37.2671 294.745 37.3312 291.829 37.4914C294.713 33.7423 297.693 30.3136 300.641 27.2374ZM276.928 46.1112C275.358 48.5786 273.788 51.1101 272.314 53.7057C270.84 56.2692 269.462 58.8327 268.148 61.3962C266.418 57.1023 264.944 52.8084 263.726 48.6427C267.924 47.6493 272.346 46.7842 276.928 46.1112ZM247.929 86.2303C236.585 81.3916 229.247 75.0469 229.247 70.016C229.247 64.9851 236.585 58.6084 247.929 53.8018C250.684 52.6162 253.697 51.5587 256.805 50.5653C258.631 56.846 261.035 63.3829 264.015 70.0801C261.067 76.7452 258.695 83.2502 256.901 89.4987C253.729 88.5054 250.717 87.4159 247.929 86.2303ZM265.168 132.021C260.81 129.522 258.92 120.005 260.394 107.764C260.746 104.752 261.323 101.579 262.028 98.3429C268.309 99.881 275.166 101.067 282.376 101.836C286.702 107.764 291.188 113.147 295.706 117.858C285.26 127.567 275.454 132.886 268.789 132.886C267.347 132.854 266.13 132.566 265.168 132.021ZM341.177 107.604C342.683 119.844 340.824 129.361 336.498 131.893C335.537 132.47 334.287 132.726 332.813 132.726C326.18 132.726 316.342 127.439 305.896 117.794C310.382 113.083 314.868 107.732 319.13 101.804C326.372 101.035 333.23 99.8489 339.51 98.2788C340.247 101.515 340.824 104.623 341.177 107.604ZM353.513 86.2303C350.758 87.4159 347.746 88.4733 344.637 89.4667C342.811 83.1861 340.407 76.6491 337.427 69.9519C340.375 63.2868 342.747 56.7819 344.541 50.5333C347.714 51.5267 350.726 52.6162 353.546 53.8018C364.889 58.6404 372.227 64.9851 372.227 70.016C372.195 75.0469 364.857 81.4237 353.513 86.2303Z" fill="#61DAFB"/>
  <path d="M300.705 84.6601C308.793 84.6601 315.349 78.1037 315.349 70.016C315.349 61.9283 308.793 55.3719 300.705 55.3719C292.617 55.3719 286.061 61.9283 286.061 70.016C286.061 78.1037 292.617 84.6601 300.705 84.6601Z" fill="#61DAFB"/>
  <path d="M163.333 74.241V65.6936H176.76V52.2667H185.373V65.6936H198.8V74.241H185.373V87.7334H176.76V74.241H163.333Z" fill="black"/>
  <path d="M0 70V140H70H140V70V-3.12924e-06H70H0V70ZM112.822 64.4222C116.378 65.3111 119.089 66.8889 121.578 69.4667C122.867 70.8444 124.778 73.3556 124.933 73.9556C124.978 74.1333 118.889 78.2222 115.2 80.5111C115.067 80.6 114.533 80.0222 113.933 79.1333C112.133 76.5111 110.244 75.3778 107.356 75.1778C103.111 74.8889 100.378 77.1111 100.4 80.8222C100.4 81.9111 100.556 82.5556 101 83.4444C101.933 85.3778 103.667 86.5333 109.111 88.8889C119.133 93.2 123.422 96.0444 126.089 100.089C129.067 104.6 129.733 111.8 127.711 117.156C125.489 122.978 119.978 126.933 112.222 128.244C109.822 128.667 104.133 128.6 101.556 128.133C95.9333 127.133 90.6 124.356 87.3111 120.711C86.0222 119.289 83.5111 115.578 83.6667 115.311C83.7333 115.222 84.3111 114.867 84.9556 114.489C85.5778 114.133 87.9333 112.778 90.1556 111.489L94.1778 109.156L95.0222 110.4C96.2 112.2 98.7778 114.667 100.333 115.489C104.8 117.844 110.933 117.511 113.956 114.8C115.244 113.622 115.778 112.4 115.778 110.6C115.778 108.978 115.578 108.267 114.733 107.044C113.644 105.489 111.422 104.178 105.111 101.444C97.8889 98.3333 94.7778 96.4 91.9333 93.3333C90.2889 91.5556 88.7333 88.7111 88.0889 86.3333C87.5556 84.3556 87.4222 79.4 87.8444 77.4C89.3333 70.4222 94.6 65.5556 102.2 64.1111C104.667 63.6444 110.4 63.8222 112.822 64.4222ZM79.9556 70.2667L80 76H70.8889H61.7778V101.889V127.778H55.3333H48.8889V101.889V76H39.7778H30.6667V70.3778C30.6667 67.2667 30.7333 64.6667 30.8222 64.6C30.8889 64.5111 41.9778 64.4667 55.4222 64.4889L79.8889 64.5556L79.9556 70.2667Z" fill="#007ACC"/>
</svg>
