<svg width="1000" height="300" xmlns="http://www.w3.org/2000/svg">
  <g clip-path="url(#Frame_16__clip0)">
    <path fill="#fff" d="M0 0h1000v300H0z"/>
    <path d="M6.12 19.2V-6h5.4V6.6h5.4v12.6H6.12zM113.415 5.898h-6.804V19.2h-1.404V4.494h8.208v1.404zm0 2.808h-3.996V19.2h-1.404V7.302h5.4v1.404zm91.455 3.186a6.103 6.103 0 01-2.43-.486 6.535 6.535 0 01-1.98-1.332 6.319 6.319 0 01-1.35-1.998 6.103 6.103 0 01-.486-2.43c0-.864.162-1.668.486-2.412a6.473 6.473 0 011.332-1.998 6.319 6.319 0 011.998-1.35 6.103 6.103 0 012.43-.486 6.103 6.103 0 014.41 1.836 6.11 6.11 0 011.836 4.41c0 .864-.162 1.674-.486 2.43a6.076 6.076 0 01-1.332 1.998 6.254 6.254 0 01-1.98 1.332 6.148 6.148 0 01-2.448.486zm-2.34-4.86c.384 0 .708-.138.972-.414.276-.276.414-.6.414-.972 0-.384-.138-.708-.414-.972a1.293 1.293 0 00-.972-.414 1.33 1.33 0 00-.972.414 1.293 1.293 0 00-.414.972c0 .372.138.696.414.972.276.276.6.414.972.414zm4.68 0c.384 0 .708-.138.972-.414.276-.276.414-.6.414-.972 0-.384-.138-.708-.414-.972a1.293 1.293 0 00-.972-.414 1.33 1.33 0 00-.972.414 1.293 1.293 0 00-.414.972c0 .372.138.696.414.972.276.276.6.414.972.414zM302.432-6h5.4V6.6h-5.4V-6zm-5.4 12.6h5.4v12.6h-5.4V6.6zm102.957 5.292a6.103 6.103 0 01-2.43-.486 6.535 6.535 0 01-1.98-1.332 6.319 6.319 0 01-1.35-1.998 6.103 6.103 0 01-.486-2.43c0-.864.162-1.668.486-2.412a6.473 6.473 0 011.332-1.998 6.319 6.319 0 011.998-1.35 6.103 6.103 0 012.43-.486 6.103 6.103 0 014.41 1.836 6.11 6.11 0 011.836 4.41c0 .864-.162 1.674-.486 2.43a6.319 6.319 0 01-1.35 1.998 6.254 6.254 0 01-1.98 1.332 6.103 6.103 0 01-2.43.486zm0-1.296c.696 0 1.344-.126 1.944-.378a4.937 4.937 0 001.566-1.08c.456-.456.81-.978 1.062-1.566.252-.6.378-1.242.378-1.926 0-.696-.132-1.344-.396-1.944a4.702 4.702 0 00-1.062-1.566 4.903 4.903 0 00-1.584-1.062 4.792 4.792 0 00-1.908-.378c-.696 0-1.344.132-1.944.396-.6.252-1.128.606-1.584 1.062a5.053 5.053 0 00-1.044 1.584 4.792 4.792 0 00-.378 1.908c0 .696.126 1.344.378 1.944.264.6.624 1.128 1.08 1.584.456.444.978.792 1.566 1.044.6.252 1.242.378 1.926.378zm2.34-3.564a1.36 1.36 0 01-.972-.396 1.35 1.35 0 01-.414-.99c0-.384.138-.708.414-.972.276-.276.6-.414.972-.414.384 0 .708.138.972.414.276.264.414.588.414.972 0 .372-.138.696-.414.972a1.293 1.293 0 01-.972.414zM499.657 19.2h-1.404V5.898h-6.804V4.494h8.208V19.2zm-2.808 0h-1.404V8.706h-3.996V7.302h5.4V19.2zm91.095 0V6.6h5.4v12.6h-5.4zm96.711-7.128V-1.104h13.176v13.176h-13.176zm12.366-1.296V7.572l-7.83-7.866h-3.222l11.052 11.07zm0-4.338V3.162l-3.438-3.456h-3.24l6.678 6.732zm0-4.428V-.294h-2.304l2.304 2.304zm-3.906 9.252h3.222L685.465.372v3.204l7.65 7.686zm-4.23 0h3.078l-6.498-6.552v3.096l3.42 3.456zm-3.42 0h2.268l-2.268-2.304v2.304zm98.284 7.938V6.6h5.4v12.6h-5.4zm102.957-7.308a6.103 6.103 0 01-2.43-.486 6.535 6.535 0 01-1.98-1.332 6.319 6.319 0 01-1.35-1.998 6.103 6.103 0 01-.486-2.43c0-.864.162-1.668.486-2.412a6.473 6.473 0 011.332-1.998 6.319 6.319 0 011.998-1.35 6.103 6.103 0 012.43-.486 6.103 6.103 0 014.41 1.836 6.11 6.11 0 011.836 4.41c0 .864-.162 1.674-.486 2.43a6.076 6.076 0 01-1.332 1.998 6.254 6.254 0 01-1.98 1.332 6.148 6.148 0 01-2.448.486zm-2.34-4.86c.384 0 .708-.138.972-.414.276-.276.414-.6.414-.972 0-.384-.138-.708-.414-.972a1.293 1.293 0 00-.972-.414 1.33 1.33 0 00-.972.414 1.293 1.293 0 00-.414.972c0 .372.138.696.414.972.276.276.6.414.972.414zm4.68 0c.384 0 .708-.138.972-.414.276-.276.414-.6.414-.972 0-.384-.138-.708-.414-.972a1.293 1.293 0 00-.972-.414 1.33 1.33 0 00-.972.414 1.293 1.293 0 00-.414.972c0 .372.138.696.414.972.276.276.6.414.972.414zm90.74 5.04V-1.104h13.176v13.176h-13.176zm12.366-1.296V7.572l-7.83-7.866H981.1l11.052 11.07zm0-4.338V3.162l-3.438-3.456h-3.24l6.678 6.732zm0-4.428V-.294h-2.304l2.304 2.304zm-3.906 9.252h3.222L980.596.372v3.204l7.65 7.686zm-4.23 0h3.078l-6.498-6.552v3.096l3.42 3.456zm-3.42 0h2.268l-2.268-2.304v2.304zM9.401 73.93v-5.292h5.328v5.292H9.401zm2.664-.216c.348 0 .672-.06.972-.18.3-.12.558-.288.774-.504.216-.216.384-.474.504-.774.132-.3.198-.624.198-.972s-.066-.672-.198-.972c-.12-.3-.288-.558-.504-.774a2.275 2.275 0 00-.774-.504c-.3-.12-.624-.18-.972-.18s-.672.06-.972.18c-.3.12-.558.288-.774.504-.216.216-.39.474-.522.774-.12.3-.18.624-.18.972s.06.672.18.972c.132.3.306.558.522.774.216.216.474.384.774.504.3.12.624.18.972.18zm91.311 2.358V62.896h13.176v13.176h-13.176zm6.606-11.412l.936-.954h-1.854l.918.954zm-2.178 2.178l1.602-1.602-1.494-1.53h-.234l-1.512 1.512 1.638 1.62zm-2.196-2.196l.918-.936h-1.836l.918.936zm6.552 2.196l1.62-1.62-1.476-1.512h-.252l-1.494 1.53 1.602 1.602zm2.196-2.196l.918-.936h-1.836l.918.936zm-10.17 1.404l.846-.828-.846-.846v1.674zm11.556-.036v-1.602l-.792.81.792.792zm-10.116 3.006l1.602-1.602-1.62-1.602-1.422 1.404v.36l1.44 1.44zm8.694 0l1.422-1.404v-.45l-1.386-1.35-1.62 1.62 1.584 1.584zm-4.338 0l1.62-1.602-1.62-1.602-1.602 1.602 1.602 1.602zm-2.178 2.178l1.602-1.602-1.602-1.602-1.602 1.602 1.602 1.602zm4.356 0l1.602-1.602-1.602-1.584-1.602 1.602 1.602 1.584zm-7.974-.72l.864-.882-.864-.882v1.764zm11.556-.036v-1.674l-.846.828.846.846zm-10.044 2.88l1.53-1.548-1.602-1.602-1.44 1.458v.18l1.512 1.512zm8.586 0l1.458-1.476v-.27l-1.422-1.404-1.584 1.602 1.548 1.548zm-4.302.09l1.62-1.638-1.62-1.584-1.602 1.62 1.602 1.602zm1.854 1.854h.522l1.35-1.35-1.548-1.566-1.602 1.638 1.278 1.278zm-4.23 0h.522l1.278-1.278-1.602-1.62-1.548 1.548 1.35 1.35zm-3.42-.45l.936-.918-.936-.936v1.854zm11.556-.036V73.03l-.882.882.882.864zm-2.232.486h1.548l-.774-.774-.774.774zm-8.586 0h1.53l-.756-.774-.774.774zm4.356 0h1.404l-.702-.702-.702.702zm94.108.81V62.896h13.176v13.176h-13.176zm.81-5.634l6.678-6.732h-3.24l-3.438 3.456v3.276zm0 4.338l11.052-11.07h-3.222l-7.83 7.866v3.204zm0-8.766l2.304-2.304h-2.304v2.304zm.684 9.252h3.222l7.65-7.686v-3.204l-10.872 10.89zm4.374 0h3.078l3.42-3.456V68.71l-6.498 6.552zm4.23 0h2.268v-2.304l-2.268 2.304zm94.395 7.938V70.6h5.4v12.6h-5.4zm97.899 0h-1.404V69.898h-6.804v-1.404h8.208V83.2zm-2.808 0h-1.404V72.706h-3.996v-1.404h5.4V83.2zm92.013-13.716v-7.128h14.256v7.128h-.918c0-.864-.162-1.668-.486-2.412a5.88 5.88 0 00-1.332-1.98 5.88 5.88 0 00-1.98-1.332 5.975 5.975 0 00-2.412-.486c-.864 0-1.674.162-2.43.486a6.127 6.127 0 00-1.98 1.332 6.254 6.254 0 00-1.332 1.98 6.173 6.173 0 00-.468 2.412h-.918zm1.926 0c0-.72.132-1.392.396-2.016a5.299 5.299 0 011.116-1.656 5.17 5.17 0 011.656-1.116 5.054 5.054 0 012.034-.414c.72 0 1.392.138 2.016.414a4.92 4.92 0 011.656 1.116 4.92 4.92 0 011.116 1.656c.276.624.414 1.296.414 2.016h-10.404zm98.24 13.716v-3.15h10.8v3.15h-10.8zm101.193-12.6V58h5.4v12.6h-5.4zm95.793 12.6V70.6h5.4v12.6h-5.4zm91.311-7.128V62.896h13.176v13.176h-13.176zm.81-5.634l6.678-6.732h-3.24l-3.438 3.456v3.276zm0 4.338l11.052-11.07h-3.222l-7.83 7.866v3.204zm0-8.766l2.304-2.304h-2.304v2.304zm.684 9.252h3.222l7.65-7.686v-3.204l-10.872 10.89zm4.374 0h3.078l3.42-3.456V68.71l-6.498 6.552zm4.23 0h2.268v-2.304l-2.268 2.304zm100.498-5.364h-6.804V83.2h-1.404V68.494h8.208v1.404zm0 2.808h-3.996V83.2h-1.404V71.302h5.4v1.404zM11.227 147.2v-18.9h10.8v18.9h-10.8zm102.957-7.308a6.103 6.103 0 01-2.43-.486 6.535 6.535 0 01-1.98-1.332 6.319 6.319 0 01-1.35-1.998 6.103 6.103 0 01-.486-2.43c0-.864.162-1.668.486-2.412a6.473 6.473 0 011.332-1.998 6.319 6.319 0 011.998-1.35 6.103 6.103 0 012.43-.486 6.103 6.103 0 014.41 1.836 6.11 6.11 0 011.836 4.41c0 .864-.162 1.674-.486 2.43a6.076 6.076 0 01-1.332 1.998 6.254 6.254 0 01-1.98 1.332 6.148 6.148 0 01-2.448.486zm-2.34-4.86c.384 0 .708-.138.972-.414.276-.276.414-.6.414-.972 0-.384-.138-.708-.414-.972a1.293 1.293 0 00-.972-.414 1.33 1.33 0 00-.972.414 1.293 1.293 0 00-.414.972c0 .372.138.696.414.972.276.276.6.414.972.414zm4.68 0c.384 0 .708-.138.972-.414.276-.276.414-.6.414-.972 0-.384-.138-.708-.414-.972a1.293 1.293 0 00-.972-.414 1.33 1.33 0 00-.972.414 1.293 1.293 0 00-.414.972c0 .372.138.696.414.972.276.276.6.414.972.414zm95.222 12.168v-12.6h5.4v12.6h-5.4zm90.393 0v-12.6h10.8v12.6h-10.8zm95.091-13.302v-1.404h12.204v1.404H397.23zm12.204 2.808h-3.996V147.2h-1.404v-11.898h5.4v1.404zM402.63 147.2h-1.404v-10.494h-3.996v-1.404h5.4V147.2zm91.095-22.05V122h10.8v3.15h-10.8zm103.299 22.05h-1.404v-13.302h-6.804v-1.404h8.208V147.2zm-2.808 0h-1.404v-10.494h-3.996v-1.404h5.4V147.2zm93.831-9.27v-5.292h5.328v5.292h-5.328zm2.664-.216c.348 0 .672-.06.972-.18.3-.12.558-.288.774-.504.216-.216.384-.474.504-.774.132-.3.198-.624.198-.972s-.066-.672-.198-.972c-.12-.3-.288-.558-.504-.774a2.275 2.275 0 00-.774-.504c-.3-.12-.624-.18-.972-.18s-.672.06-.972.18c-.3.12-.558.288-.774.504-.216.216-.39.474-.522.774-.12.3-.18.624-.18.972s.06.672.18.972c.132.3.306.558.522.774.216.216.474.384.774.504.3.12.624.18.972.18zm91.617.486v-8.28h8.352v8.28h-8.352zm4.176-.072c.6 0 1.152-.102 1.656-.306a3.852 3.852 0 001.296-.846c.36-.372.642-.804.846-1.296a4.276 4.276 0 00.306-1.62c0-.576-.102-1.11-.306-1.602a3.852 3.852 0 00-.846-1.296 3.722 3.722 0 00-1.296-.864 4.374 4.374 0 00-1.656-.306c-.6 0-1.152.102-1.656.306a3.722 3.722 0 00-1.296.864c-.36.36-.642.792-.846 1.296a4.141 4.141 0 00-.306 1.602c0 .576.102 1.116.306 1.62.204.492.486.924.846 1.296.36.36.792.642 1.296.846a4.374 4.374 0 001.656.306zm0-.882c-.444 0-.858-.078-1.242-.234a3 3 0 01-.972-.648 3.332 3.332 0 01-.63-1.008 3.505 3.505 0 01-.234-1.296c0-.468.078-.894.234-1.278.156-.396.366-.732.63-1.008.276-.288.6-.51.972-.666a3.268 3.268 0 011.242-.234c.444 0 .852.078 1.224.234.384.156.708.378.972.666.276.276.492.612.648 1.008.156.384.234.81.234 1.278 0 .468-.078.9-.234 1.296a3.16 3.16 0 01-.648 1.008 2.764 2.764 0 01-.972.648c-.372.156-.78.234-1.224.234zm90.392 9.954V122h5.4v12.6h5.4v12.6h-10.8zm96.711-6.588v-7.128h.918c0 .864.156 1.674.468 2.43a6.535 6.535 0 001.332 1.98 6.535 6.535 0 001.98 1.332 6.306 6.306 0 002.43.468c.864 0 1.668-.156 2.412-.468a6.254 6.254 0 001.98-1.332 6.127 6.127 0 001.332-1.98 6.103 6.103 0 00.486-2.43h.918v7.128h-14.256zm7.128-1.926c-.72 0-1.398-.132-2.034-.396a5.59 5.59 0 01-1.656-1.116 5.59 5.59 0 01-1.116-1.656 5.252 5.252 0 01-.396-2.034h10.404c0 .72-.138 1.398-.414 2.034a5.17 5.17 0 01-1.116 1.656c-.468.468-1.02.84-1.656 1.116a5.12 5.12 0 01-2.016.396zM12.105 211.2V186h5.4v12.6h5.4v12.6h-10.8zm106.593-12.6h-5.4v12.6h-5.4V186h10.8v12.6zm84.993 12.6V186h5.4v12.6h5.4v12.6h-10.8zm107.295-13.302h-6.804V211.2h-1.404v-14.706h8.208v1.404zm0 2.808h-3.996V211.2h-1.404v-11.898h5.4v1.404zm91.455 3.186a6.103 6.103 0 01-2.43-.486 6.535 6.535 0 01-1.98-1.332 6.319 6.319 0 01-1.35-1.998 6.103 6.103 0 01-.486-2.43c0-.864.162-1.668.486-2.412a6.473 6.473 0 011.332-1.998 6.319 6.319 0 011.998-1.35 6.103 6.103 0 012.43-.486 6.103 6.103 0 014.41 1.836 6.11 6.11 0 011.836 4.41c0 .864-.162 1.674-.486 2.43a6.076 6.076 0 01-1.332 1.998 6.254 6.254 0 01-1.98 1.332 6.148 6.148 0 01-2.448.486zm-2.34-4.86c.384 0 .708-.138.972-.414.276-.276.414-.6.414-.972 0-.384-.138-.708-.414-.972a1.293 1.293 0 00-.972-.414 1.33 1.33 0 00-.972.414 1.293 1.293 0 00-.414.972c0 .372.138.696.414.972.276.276.6.414.972.414zm4.68 0c.384 0 .708-.138.972-.414.276-.276.414-.6.414-.972 0-.384-.138-.708-.414-.972a1.293 1.293 0 00-.972-.414 1.33 1.33 0 00-.972.414 1.293 1.293 0 00-.414.972c0 .372.138.696.414.972.276.276.6.414.972.414zM500.004 186h5.4v12.6h-5.4V186zm-5.4 12.6h5.4v12.6h-5.4v-12.6zm102.956 5.292a6.103 6.103 0 01-2.43-.486 6.535 6.535 0 01-1.98-1.332 6.319 6.319 0 01-1.35-1.998 6.103 6.103 0 01-.486-2.43c0-.864.162-1.668.486-2.412a6.473 6.473 0 011.332-1.998 6.319 6.319 0 011.998-1.35 6.103 6.103 0 012.43-.486 6.103 6.103 0 014.41 1.836 6.11 6.11 0 011.836 4.41c0 .864-.162 1.674-.486 2.43a6.319 6.319 0 01-1.35 1.998 6.254 6.254 0 01-1.98 1.332 6.103 6.103 0 01-2.43.486zm0-1.296c.696 0 1.344-.126 1.944-.378a4.937 4.937 0 001.566-1.08c.456-.456.81-.978 1.062-1.566.252-.6.378-1.242.378-1.926 0-.696-.132-1.344-.396-1.944a4.702 4.702 0 00-1.062-1.566 4.903 4.903 0 00-1.584-1.062 4.792 4.792 0 00-1.908-.378c-.696 0-1.344.132-1.944.396-.6.252-1.128.606-1.584 1.062a5.053 5.053 0 00-1.044 1.584 4.792 4.792 0 00-.378 1.908c0 .696.126 1.344.378 1.944.264.6.624 1.128 1.08 1.584.456.444.978.792 1.566 1.044.6.252 1.242.378 1.926.378zm2.34-3.564a1.36 1.36 0 01-.972-.396 1.35 1.35 0 01-.414-.99c0-.384.138-.708.414-.972.276-.276.6-.414.972-.414.384 0 .708.138.972.414.276.264.414.588.414.972 0 .372-.138.696-.414.972a1.293 1.293 0 01-.972.414zm97.329 12.168h-1.404v-13.302h-6.804v-1.404h8.208V211.2zm-2.808 0h-1.404v-10.494h-3.996v-1.404h5.4V211.2zm91.095 0v-12.6h5.4v12.6h-5.4zm101.193 0v-12.6h5.4v12.6h-5.4zm97.899 0h-1.404v-13.302H976.4v-1.404h8.208V211.2zm-2.808 0h-1.404v-10.494H976.4v-1.404h5.4V211.2zM10.035 261.484v-7.128h14.256v7.128h-.918c0-.864-.162-1.668-.486-2.412a5.88 5.88 0 00-1.332-1.98 5.88 5.88 0 00-1.98-1.332 5.975 5.975 0 00-2.412-.486c-.864 0-1.674.162-2.43.486a6.127 6.127 0 00-1.98 1.332 6.254 6.254 0 00-1.332 1.98 6.173 6.173 0 00-.468 2.412h-.918zm1.926 0c0-.72.132-1.392.396-2.016a5.299 5.299 0 011.116-1.656 5.17 5.17 0 011.656-1.116 5.054 5.054 0 012.034-.414c.72 0 1.392.138 2.016.414a4.92 4.92 0 011.656 1.116 4.92 4.92 0 011.116 1.656c.276.624.414 1.296.414 2.016H11.961zm98.24 13.716v-3.15h10.8v3.15h-10.8zm101.193-12.6V250h5.4v12.6h-5.4zm95.793 12.6v-12.6h5.4v12.6h-5.4zm91.311-7.128v-13.176h13.176v13.176h-13.176zm.81-5.634l6.678-6.732h-3.24l-3.438 3.456v3.276zm0 4.338l11.052-11.07h-3.222l-7.83 7.866v3.204zm0-8.766l2.304-2.304h-2.304v2.304zm.684 9.252h3.222l7.65-7.686v-3.204l-10.872 10.89zm4.374 0h3.078l3.42-3.456v-3.096l-6.498 6.552zm4.23 0h2.268v-2.304l-2.268 2.304zm100.498-5.364h-6.804V275.2h-1.404v-14.706h8.208v1.404zm0 2.808h-3.996V275.2h-1.404v-11.898h5.4v1.404zm84.291 10.494v-18.9h10.8v18.9h-10.8zm102.957-7.308a6.103 6.103 0 01-2.43-.486 6.535 6.535 0 01-1.98-1.332 6.319 6.319 0 01-1.35-1.998 6.103 6.103 0 01-.486-2.43c0-.864.162-1.668.486-2.412a6.473 6.473 0 011.332-1.998 6.319 6.319 0 011.998-1.35 6.103 6.103 0 012.43-.486 6.103 6.103 0 014.41 1.836 6.11 6.11 0 011.836 4.41c0 .864-.162 1.674-.486 2.43a6.076 6.076 0 01-1.332 1.998 6.254 6.254 0 01-1.98 1.332 6.148 6.148 0 01-2.448.486zm-2.34-4.86c.384 0 .708-.138.972-.414.276-.276.414-.6.414-.972 0-.384-.138-.708-.414-.972a1.293 1.293 0 00-.972-.414 1.33 1.33 0 00-.972.414 1.293 1.293 0 00-.414.972c0 .372.138.696.414.972.276.276.6.414.972.414zm4.68 0c.384 0 .708-.138.972-.414.276-.276.414-.6.414-.972 0-.384-.138-.708-.414-.972a1.293 1.293 0 00-.972-.414 1.33 1.33 0 00-.972.414 1.293 1.293 0 00-.414.972c0 .372.138.696.414.972.276.276.6.414.972.414zm95.222 12.168v-12.6h5.4v12.6h-5.4zm90.393 0v-12.6h10.8v12.6h-10.8zm95.091-13.302v-1.404h12.204v1.404h-12.204zm12.204 2.808h-3.996V275.2h-1.404v-11.898h5.4v1.404zm-6.804 10.494h-1.404v-10.494h-3.996v-1.404h5.4V275.2z" fill="#F9F871"/>
    <path d="M285.604 164.727c0-7.133-4.183-11.581-9.951-11.581-5.769 0-9.952 4.448-9.952 11.581 0 7.134 4.183 11.581 9.952 11.581 5.768 0 9.951-4.447 9.951-11.581zm-2.642 0c0 5.857-3.214 9.027-7.309 9.027-4.095 0-7.31-3.17-7.31-9.027 0-5.856 3.215-9.027 7.31-9.027s7.309 3.171 7.309 9.027zm6.881 17.614h2.598v-8.939h.22c.572.925 1.673 2.95 4.932 2.95 4.227 0 7.177-3.39 7.177-8.763 0-5.328-2.95-8.718-7.221-8.718-3.303 0-4.316 2.025-4.888 2.906h-.308v-2.686h-2.51v23.25zm2.554-14.796c0-3.786 1.673-6.34 4.843-6.34 3.303 0 4.932 2.774 4.932 6.34 0 3.611-1.673 6.473-4.932 6.473-3.126 0-4.843-2.642-4.843-6.473zm23.69-8.454h-3.611v-4.051h-2.598v4.051h-2.554v2.202h2.554v10.568c0 2.95 2.378 4.359 4.58 4.359.968 0 1.585-.176 1.937-.308l-.528-2.334c-.22.044-.573.132-1.145.132-1.145 0-2.246-.352-2.246-2.554v-9.863h3.611v-2.202zM319.995 176h2.598v-16.909h-2.598V176zm1.321-19.727c1.013 0 1.849-.793 1.849-1.762 0-.968-.836-1.761-1.849-1.761s-1.849.793-1.849 1.761c0 .969.836 1.762 1.849 1.762zM327.351 176h2.598v-10.568c0-2.477 1.806-4.227 3.831-4.227 1.971 0 3.347 1.288 3.347 3.214V176h2.642v-11.009c0-2.179 1.365-3.786 3.743-3.786 1.849 0 3.435.979 3.435 3.478V176h2.598v-11.317c0-3.974-2.136-5.812-5.152-5.812-2.422 0-4.195 1.112-5.064 2.862h-.176c-.837-1.805-2.312-2.862-4.536-2.862-2.202 0-3.831 1.057-4.535 2.862h-.221v-2.642h-2.51V176zm26.944 0h2.598v-16.909h-2.598V176zm1.321-19.727c1.013 0 1.849-.793 1.849-1.762 0-.968-.836-1.761-1.849-1.761s-1.85.793-1.85 1.761c0 .969.837 1.762 1.85 1.762zM361.167 176h13.254v-2.422h-9.643v-.176l9.335-12.241v-2.07h-12.638v2.422h9.291v.176l-9.599 12.329V176zm23.861.352c3.435 0 5.944-1.717 6.737-4.271l-2.51-.705c-.66 1.762-2.191 2.642-4.227 2.642-3.049 0-5.152-1.97-5.273-5.592h12.274v-1.101c0-6.297-3.743-8.454-7.265-8.454-4.58 0-7.618 3.611-7.618 8.807s2.994 8.674 7.882 8.674zm-5.273-10.172c.176-2.631 2.036-4.975 5.009-4.975 2.818 0 4.623 2.113 4.623 4.975h-9.632zm37.627-7.089h2.642c-.121-3.402-3.259-5.945-7.618-5.945-4.315 0-7.706 2.51-7.706 6.297 0 3.039 2.202 4.844 5.725 5.857l2.774.792c2.378.661 4.491 1.497 4.491 3.743 0 2.466-2.378 4.095-5.504 4.095-2.686 0-5.064-1.189-5.284-3.742h-2.818c.264 3.698 3.258 6.208 8.102 6.208 5.196 0 8.146-2.862 8.146-6.517 0-4.227-4.007-5.592-6.341-6.209l-2.289-.616c-1.674-.44-4.36-1.321-4.36-3.743 0-2.158 1.982-3.743 4.976-3.743 2.73 0 4.8 1.299 5.064 3.523zm8.364-5.636h-2.863L431.162 176h2.818l8.278-22.545h-2.862l-6.693 18.978h-.264l-6.693-18.978zm34.377 7.045h2.818c-.837-4.359-4.492-7.354-9.247-7.354-5.78 0-9.864 4.448-9.864 11.581 0 7.134 4.051 11.581 10.04 11.581 5.372 0 9.203-3.578 9.203-9.159v-2.422h-8.587v2.422h5.945c-.077 4.051-2.741 6.605-6.561 6.605-4.184 0-7.398-3.17-7.398-9.027 0-5.856 3.214-9.027 7.222-9.027 3.258 0 5.471 1.839 6.429 4.8zm16.344 15.5h2.51v-2.598h.309c.572.925 1.673 2.95 4.931 2.95 4.228 0 7.178-3.39 7.178-8.763 0-5.328-2.95-8.718-7.222-8.718-3.302 0-4.315 2.025-4.887 2.906h-.221v-8.322h-2.598V176zm2.554-8.455c0-3.786 1.674-6.34 4.844-6.34 3.303 0 4.932 2.774 4.932 6.34 0 3.611-1.673 6.473-4.932 6.473-3.126 0-4.844-2.642-4.844-6.473zm23.438 8.807c3.434 0 5.944-1.717 6.737-4.271l-2.51-.705c-.661 1.762-2.191 2.642-4.227 2.642-3.05 0-5.152-1.97-5.274-5.592h12.275v-1.101c0-6.297-3.743-8.454-7.266-8.454-4.579 0-7.618 3.611-7.618 8.807s2.995 8.674 7.883 8.674zm-5.274-10.172c.177-2.631 2.037-4.975 5.009-4.975 2.819 0 4.624 2.113 4.624 4.975h-9.633zm23.757-7.089h-3.787v-1.717c0-1.674.704-2.554 2.422-2.554.748 0 1.189.176 1.453.264l.748-2.246c-.396-.176-1.188-.44-2.465-.44-2.422 0-4.756 1.453-4.756 4.359v2.334h-2.73v2.202h2.73V176h2.598v-14.707h3.787v-2.202zm9.814 17.261c4.579 0 7.662-3.478 7.662-8.718 0-5.285-3.083-8.763-7.662-8.763-4.58 0-7.662 3.478-7.662 8.763 0 5.24 3.082 8.718 7.662 8.718zm0-2.334c-3.479 0-5.064-2.994-5.064-6.384 0-3.391 1.585-6.429 5.064-6.429s5.064 3.038 5.064 6.429c0 3.39-1.585 6.384-5.064 6.384zM542.384 176h2.598v-10.7c0-2.29 1.805-3.963 4.271-3.963a7.94 7.94 0 011.585.176v-2.642c-.297-.022-.98-.044-1.365-.044-2.025 0-3.787 1.145-4.403 2.818h-.176v-2.554h-2.51V176zm18.109.352c3.434 0 5.944-1.717 6.737-4.271l-2.51-.705c-.661 1.762-2.191 2.642-4.227 2.642-3.05 0-5.152-1.97-5.273-5.592h12.274v-1.101c0-6.297-3.743-8.454-7.265-8.454-4.58 0-7.618 3.611-7.618 8.807s2.994 8.674 7.882 8.674zm-5.273-10.172c.176-2.631 2.036-4.975 5.009-4.975 2.818 0 4.623 2.113 4.623 4.975h-9.632zm32.034 10.172c3.435 0 5.945-1.717 6.738-4.271l-2.51-.705c-.661 1.762-2.191 2.642-4.228 2.642-3.049 0-5.152-1.97-5.273-5.592h12.275v-1.101c0-6.297-3.743-8.454-7.266-8.454-4.579 0-7.618 3.611-7.618 8.807s2.995 8.674 7.882 8.674zm-5.273-10.172c.176-2.631 2.037-4.975 5.009-4.975 2.818 0 4.624 2.113 4.624 4.975h-9.633zm17.71-7.089h-2.994l5.372 8.454-5.372 8.455h2.994l4.051-6.561 4.052 6.561h2.994l-5.46-8.455 5.46-8.454h-2.994l-4.052 6.913-4.051-6.913zm14.804 23.25h2.598v-8.939h.22c.573.925 1.674 2.95 4.932 2.95 4.227 0 7.178-3.39 7.178-8.763 0-5.328-2.951-8.718-7.222-8.718-3.303 0-4.315 2.025-4.888 2.906h-.308v-2.686h-2.51v23.25zm2.554-14.796c0-3.786 1.673-6.34 4.844-6.34 3.302 0 4.932 2.774 4.932 6.34 0 3.611-1.674 6.473-4.932 6.473-3.127 0-4.844-2.642-4.844-6.473zm23.206 8.807c4.58 0 7.662-3.478 7.662-8.718 0-5.285-3.082-8.763-7.662-8.763s-7.662 3.478-7.662 8.763c0 5.24 3.082 8.718 7.662 8.718zm0-2.334c-3.479 0-5.064-2.994-5.064-6.384 0-3.391 1.585-6.429 5.064-6.429s5.064 3.038 5.064 6.429c0 3.39-1.585 6.384-5.064 6.384zM651.883 176h2.598v-10.7c0-2.29 1.805-3.963 4.271-3.963a7.94 7.94 0 011.585.176v-2.642a24.959 24.959 0 00-1.365-.044c-2.025 0-3.787 1.145-4.403 2.818h-.176v-2.554h-2.51V176zm19.947-16.909h-3.611v-4.051h-2.598v4.051h-2.554v2.202h2.554v10.568c0 2.95 2.378 4.359 4.58 4.359.969 0 1.585-.176 1.937-.308l-.528-2.334c-.22.044-.572.132-1.145.132-1.145 0-2.246-.352-2.246-2.554v-9.863h3.611v-2.202zM675.738 176h2.598v-16.909h-2.598V176zm1.321-19.727c1.013 0 1.85-.793 1.85-1.762 0-.968-.837-1.761-1.85-1.761-1.013 0-1.849.793-1.849 1.761 0 .969.836 1.762 1.849 1.762zm8.634 9.555c0-2.95 1.827-4.623 4.315-4.623 2.411 0 3.875 1.574 3.875 4.227V176h2.598v-10.744c0-4.316-2.301-6.385-5.724-6.385-2.554 0-4.14 1.145-4.932 2.862h-.22v-2.642h-2.51V176h2.598v-10.172zm22.361 16.865c4.051 0 7.309-1.849 7.309-6.209v-17.393h-2.51v2.686h-.264c-.572-.881-1.629-2.906-4.932-2.906-4.271 0-7.221 3.39-7.221 8.586 0 5.284 3.082 8.279 7.177 8.279 3.303 0 4.36-1.938 4.932-2.862h.22v3.434c0 2.818-1.981 4.095-4.711 4.095-3.072 0-4.151-1.618-4.844-2.554l-2.07 1.454c1.057 1.772 3.138 3.39 6.914 3.39zm-.088-9.291c-3.259 0-4.932-2.466-4.932-5.989 0-3.434 1.629-6.208 4.932-6.208 3.17 0 4.843 2.554 4.843 6.208 0 3.743-1.717 5.989-4.843 5.989zm16.028-.484h-2.818l-.132 1.233c-.319 2.983-.947 5.955-1.233 7.353h1.981c.529-1.497 1.652-4.888 2.026-7.397l.176-1.189zM250.307 227h2.554l3.699-12.99h.264l3.699 12.99h2.554l5.152-16.909h-2.73l-3.655 12.902h-.176l-3.567-12.902h-2.774l-3.611 12.946h-.176l-3.655-12.946h-2.73L250.307 227zm21.356 0h2.598v-16.909h-2.598V227zm1.322-19.727c1.012 0 1.849-.793 1.849-1.762 0-.968-.837-1.761-1.849-1.761-1.013 0-1.85.793-1.85 1.761 0 .969.837 1.762 1.85 1.762zm13.389 2.818h-3.611v-4.051h-2.598v4.051h-2.554v2.202h2.554v10.568c0 2.95 2.378 4.359 4.579 4.359.969 0 1.586-.176 1.938-.308l-.529-2.334c-.22.044-.572.132-1.144.132-1.145 0-2.246-.352-2.246-2.554v-9.863h3.611v-2.202zm6.869 6.737c0-2.95 1.882-4.623 4.447-4.623 2.444 0 3.919 1.541 3.919 4.227V227h2.598v-10.744c0-4.349-2.311-6.385-5.768-6.385-2.664 0-4.183 1.112-4.976 2.862h-.22v-8.278h-2.598V227h2.598v-10.172zm22.587 10.524c4.579 0 7.662-3.478 7.662-8.718 0-5.285-3.083-8.763-7.662-8.763-4.58 0-7.662 3.478-7.662 8.763 0 5.24 3.082 8.718 7.662 8.718zm0-2.334c-3.479 0-5.064-2.994-5.064-6.384 0-3.391 1.585-6.429 5.064-6.429 3.478 0 5.064 3.038 5.064 6.429 0 3.39-1.586 6.384-5.064 6.384zm22.284-4.931c0 3.17-2.422 4.623-4.36 4.623-2.157 0-3.699-1.585-3.699-4.051v-10.568h-2.598v10.744c0 4.316 2.29 6.385 5.461 6.385 2.554 0 4.227-1.365 5.02-3.082h.176V227h2.598v-16.909h-2.598v9.996zm14.71-9.996h-3.611v-4.051h-2.598v4.051h-2.554v2.202h2.554v10.568c0 2.95 2.378 4.359 4.58 4.359.968 0 1.585-.176 1.937-.308l-.528-2.334c-.221.044-.573.132-1.145.132-1.145 0-2.246-.352-2.246-2.554v-9.863h3.611v-2.202zm15.225 6.737c0-2.95 1.827-4.623 4.315-4.623 2.411 0 3.875 1.574 3.875 4.227V227h2.598v-10.744c0-4.316-2.301-6.385-5.724-6.385-2.554 0-4.14 1.145-4.932 2.862h-.22v-2.642h-2.51V227h2.598v-10.172zm22.625 10.524c3.435 0 5.944-1.717 6.737-4.271l-2.51-.705c-.66 1.762-2.191 2.642-4.227 2.642-3.049 0-5.152-1.97-5.273-5.592h12.274v-1.101c0-6.297-3.743-8.454-7.265-8.454-4.58 0-7.618 3.611-7.618 8.807s2.994 8.674 7.882 8.674zm-5.273-10.172c.176-2.631 2.036-4.975 5.009-4.975 2.818 0 4.623 2.113 4.623 4.975h-9.632zm23.316 10.172c3.435 0 5.944-1.717 6.737-4.271l-2.51-.705c-.66 1.762-2.191 2.642-4.227 2.642-3.05 0-5.152-1.97-5.273-5.592h12.274v-1.101c0-6.297-3.743-8.454-7.265-8.454-4.58 0-7.618 3.611-7.618 8.807s2.994 8.674 7.882 8.674zm-5.273-10.172c.176-2.631 2.036-4.975 5.009-4.975 2.818 0 4.623 2.113 4.623 4.975h-9.632zm22.611 10.172c3.259 0 4.36-2.025 4.932-2.95h.308V227h2.51v-22.545h-2.598v8.322h-.22c-.572-.881-1.585-2.906-4.888-2.906-4.271 0-7.221 3.39-7.221 8.718 0 5.373 2.95 8.763 7.177 8.763zm.353-2.334c-3.259 0-4.932-2.862-4.932-6.473 0-3.566 1.629-6.34 4.932-6.34 3.17 0 4.843 2.554 4.843 6.34 0 3.831-1.717 6.473-4.843 6.473zm28.765-14.927h-3.787v-1.717c0-1.674.704-2.554 2.422-2.554.748 0 1.189.176 1.453.264l.748-2.246c-.396-.176-1.188-.44-2.465-.44-2.422 0-4.756 1.453-4.756 4.359v2.334h-2.73v2.202h2.73V227h2.598v-14.707h3.787v-2.202zm9.814 17.261c4.579 0 7.662-3.478 7.662-8.718 0-5.285-3.083-8.763-7.662-8.763-4.58 0-7.662 3.478-7.662 8.763 0 5.24 3.082 8.718 7.662 8.718zm0-2.334c-3.479 0-5.064-2.994-5.064-6.384 0-3.391 1.585-6.429 5.064-6.429s5.064 3.038 5.064 6.429c0 3.39-1.585 6.384-5.064 6.384zM476.615 227h2.598v-10.7c0-2.29 1.805-3.963 4.271-3.963a7.94 7.94 0 011.585.176v-2.642c-.297-.022-.98-.044-1.365-.044-2.025 0-3.787 1.145-4.403 2.818h-.176v-2.554h-2.51V227zm25.228.396c2.951 0 4.492-1.585 5.02-2.686h.132V227h2.598v-11.141c0-5.372-4.095-5.988-6.252-5.988-2.554 0-5.461.88-6.782 3.963l2.466.88c.573-1.232 1.927-2.553 4.404-2.553 2.389 0 3.566 1.265 3.566 3.434v.088c0 1.255-1.277 1.145-4.359 1.541-3.137.408-6.561 1.101-6.561 4.976 0 3.303 2.554 5.196 5.768 5.196zm.397-2.334c-2.07 0-3.567-.924-3.567-2.73 0-1.981 1.805-2.598 3.831-2.862 1.101-.132 4.051-.44 4.491-.969v2.378c0 2.114-1.673 4.183-4.755 4.183zm14.693-8.234c0-2.95 1.828-4.623 4.316-4.623 2.411 0 3.875 1.574 3.875 4.227V227h2.598v-10.744c0-4.316-2.301-6.385-5.725-6.385-2.554 0-4.139 1.145-4.932 2.862h-.22v-2.642h-2.51V227h2.598v-10.172zm29.231 10.568c2.95 0 4.491-1.585 5.02-2.686h.132V227h2.598v-11.141c0-5.372-4.095-5.988-6.253-5.988-2.554 0-5.46.88-6.781 3.963l2.466.88c.572-1.232 1.926-2.553 4.403-2.553 2.389 0 3.567 1.265 3.567 3.434v.088c0 1.255-1.277 1.145-4.36 1.541-3.137.408-6.561 1.101-6.561 4.976 0 3.303 2.554 5.196 5.769 5.196zm.396-2.334c-2.07 0-3.567-.924-3.567-2.73 0-1.981 1.806-2.598 3.831-2.862 1.101-.132 4.051-.44 4.492-.969v2.378c0 2.114-1.674 4.183-4.756 4.183zm18.481 2.29c3.258 0 4.359-2.025 4.931-2.95h.309V227h2.51v-22.545h-2.598v8.322h-.221c-.572-.881-1.585-2.906-4.887-2.906-4.272 0-7.222 3.39-7.222 8.718 0 5.373 2.95 8.763 7.178 8.763zm.352-2.334c-3.259 0-4.932-2.862-4.932-6.473 0-3.566 1.629-6.34 4.932-6.34 3.17 0 4.844 2.554 4.844 6.34 0 3.831-1.718 6.473-4.844 6.473zm18.902 2.334c3.258 0 4.359-2.025 4.931-2.95h.309V227h2.51v-22.545h-2.598v8.322h-.221c-.572-.881-1.585-2.906-4.887-2.906-4.272 0-7.222 3.39-7.222 8.718 0 5.373 2.95 8.763 7.178 8.763zm.352-2.334c-3.259 0-4.932-2.862-4.932-6.473 0-3.566 1.629-6.34 4.932-6.34 3.17 0 4.844 2.554 4.844 6.34 0 3.831-1.718 6.473-4.844 6.473zM597.163 227h2.598v-16.909h-2.598V227zm1.322-19.727c1.012 0 1.849-.793 1.849-1.762 0-.968-.837-1.761-1.849-1.761-1.013 0-1.85.793-1.85 1.761 0 .969.837 1.762 1.85 1.762zm13.389 2.818h-3.611v-4.051h-2.598v4.051h-2.554v2.202h2.554v10.568c0 2.95 2.378 4.359 4.579 4.359.969 0 1.586-.176 1.938-.308l-.529-2.334c-.22.044-.572.132-1.144.132-1.145 0-2.246-.352-2.246-2.554v-9.863h3.611v-2.202zM615.782 227h2.598v-16.909h-2.598V227zm1.321-19.727c1.012 0 1.849-.793 1.849-1.762 0-.968-.837-1.761-1.849-1.761-1.013 0-1.85.793-1.85 1.761 0 .969.837 1.762 1.85 1.762zm12.904 20.079c4.58 0 7.662-3.478 7.662-8.718 0-5.285-3.082-8.763-7.662-8.763-4.579 0-7.662 3.478-7.662 8.763 0 5.24 3.083 8.718 7.662 8.718zm0-2.334c-3.478 0-5.064-2.994-5.064-6.384 0-3.391 1.586-6.429 5.064-6.429 3.479 0 5.064 3.038 5.064 6.429 0 3.39-1.585 6.384-5.064 6.384zm14.226-8.19c0-2.95 1.828-4.623 4.316-4.623 2.41 0 3.875 1.574 3.875 4.227V227h2.598v-10.744c0-4.316-2.301-6.385-5.725-6.385-2.554 0-4.139 1.145-4.932 2.862h-.22v-2.642h-2.51V227h2.598v-10.172zm20.512 10.568c2.95 0 4.491-1.585 5.02-2.686h.132V227h2.598v-11.141c0-5.372-4.095-5.988-6.253-5.988-2.554 0-5.46.88-6.781 3.963l2.466.88c.572-1.232 1.926-2.553 4.403-2.553 2.389 0 3.567 1.265 3.567 3.434v.088c0 1.255-1.277 1.145-4.36 1.541-3.137.408-6.561 1.101-6.561 4.976 0 3.303 2.554 5.196 5.769 5.196zm.396-2.334c-2.069 0-3.567-.924-3.567-2.73 0-1.981 1.806-2.598 3.831-2.862 1.101-.132 4.051-.44 4.492-.969v2.378c0 2.114-1.673 4.183-4.756 4.183zm14.694-20.607h-2.598V227h2.598v-22.545zm20.831 5.636h-3.611v-4.051h-2.598v4.051h-2.554v2.202h2.554v10.568c0 2.95 2.378 4.359 4.579 4.359.969 0 1.586-.176 1.938-.308l-.529-2.334c-.22.044-.572.132-1.144.132-1.145 0-2.246-.352-2.246-2.554v-9.863h3.611v-2.202zm10.595 17.261c4.58 0 7.662-3.478 7.662-8.718 0-5.285-3.082-8.763-7.662-8.763-4.579 0-7.662 3.478-7.662 8.763 0 5.24 3.083 8.718 7.662 8.718zm0-2.334c-3.478 0-5.064-2.994-5.064-6.384 0-3.391 1.586-6.429 5.064-6.429 3.479 0 5.064 3.038 5.064 6.429 0 3.39-1.585 6.384-5.064 6.384zm18.497 2.334c4.58 0 7.662-3.478 7.662-8.718 0-5.285-3.082-8.763-7.662-8.763-4.579 0-7.662 3.478-7.662 8.763 0 5.24 3.083 8.718 7.662 8.718zm0-2.334c-3.478 0-5.064-2.994-5.064-6.384 0-3.391 1.586-6.429 5.064-6.429 3.479 0 5.064 3.038 5.064 6.429 0 3.39-1.585 6.384-5.064 6.384zm14.226-20.563h-2.598V227h2.598v-22.545zm6.652 22.721c1.09 0 1.982-.892 1.982-1.981 0-1.09-.892-1.982-1.982-1.982-1.09 0-1.981.892-1.981 1.982 0 1.089.891 1.981 1.981 1.981zM339.523 103l1.861-5.56h8.476l1.872 5.56h4.359l-7.948-22.546h-5.042L335.164 103h4.359zm2.962-8.84l3.049-9.082h.176l3.049 9.082h-6.274zm22.16 9.137c2.906 0 4.216-1.728 4.843-2.961h.243V103h3.919V80.454h-3.996v8.433h-.166c-.605-1.222-1.849-3.016-4.832-3.016-3.908 0-6.98 3.06-6.98 8.697 0 5.57 2.984 8.729 6.969 8.729zm1.112-3.269c-2.631 0-4.019-2.312-4.019-5.483 0-3.148 1.366-5.405 4.019-5.405 2.565 0 3.974 2.125 3.974 5.406 0 3.28-1.431 5.482-3.974 5.482zM393 86.091h-4.238l-3.897 12.56h-.177l-3.886-12.56h-4.249L382.575 103h4.403L393 86.09zm7.139 17.25c2.653 0 4.238-1.244 4.965-2.664h.132V103h3.831V91.683c0-4.47-3.644-5.812-6.869-5.812-3.556 0-6.286 1.585-7.167 4.667l3.721.529c.396-1.156 1.519-2.147 3.468-2.147 1.849 0 2.862.947 2.862 2.61v.065c0 1.145-1.2 1.2-4.183 1.52-3.281.352-6.418 1.331-6.418 5.14 0 3.325 2.432 5.086 5.658 5.086zm1.035-2.928c-1.663 0-2.851-.76-2.851-2.224 0-1.53 1.332-2.168 3.115-2.422 1.046-.143 3.137-.407 3.655-.825v1.992c0 1.883-1.519 3.479-3.919 3.479zm15.885-7.32c0-2.445 1.475-3.854 3.578-3.854 2.058 0 3.291 1.354 3.291 3.611V103h3.985V92.234c.011-4.051-2.3-6.363-5.79-6.363-2.532 0-4.271 1.21-5.042 3.093h-.198v-2.873h-3.809V103h3.985v-9.908zm22.281 10.237c4.25 0 6.958-2.521 7.244-6.11h-3.809c-.341 1.817-1.651 2.863-3.402 2.863-2.488 0-4.095-2.08-4.095-5.537 0-3.413 1.64-5.46 4.095-5.46 1.916 0 3.094 1.232 3.402 2.861h3.809c-.275-3.665-3.138-6.076-7.266-6.076-4.954 0-8.08 3.578-8.08 8.74 0 5.12 3.049 8.719 8.102 8.719zm18.002 0c3.941 0 6.649-1.926 7.354-4.865l-3.721-.419c-.54 1.431-1.861 2.18-3.578 2.18-2.576 0-4.282-1.695-4.315-4.59h11.779v-1.223c0-5.933-3.567-8.542-7.728-8.542-4.844 0-8.003 3.556-8.003 8.773 0 5.307 3.115 8.686 8.212 8.686zm-4.249-10.38c.121-2.159 1.717-3.975 4.095-3.975 2.29 0 3.831 1.673 3.853 3.974h-7.948zm21.414 10.347c2.906 0 4.216-1.728 4.844-2.961h.242V103h3.919V80.454h-3.996v8.433h-.165c-.606-1.222-1.85-3.016-4.833-3.016-3.908 0-6.979 3.06-6.979 8.697 0 5.57 2.983 8.729 6.968 8.729zm1.112-3.269c-2.631 0-4.018-2.312-4.018-5.483 0-3.148 1.365-5.405 4.018-5.405 2.565 0 3.974 2.125 3.974 5.406 0 3.28-1.431 5.482-3.974 5.482zm32.258-13.376h3.93c-.077-3.809-3.325-6.506-8.125-6.506-4.733 0-8.289 2.664-8.278 6.65 0 3.236 2.301 5.096 6.011 6.054l2.565.66c2.432.617 4.04 1.377 4.051 3.127-.011 1.927-1.839 3.215-4.503 3.215-2.554 0-4.535-1.145-4.7-3.512h-4.019c.166 4.48 3.501 7.001 8.752 7.001 5.405 0 8.543-2.697 8.554-6.67-.011-3.909-3.237-5.692-6.627-6.496l-2.114-.528c-1.849-.44-3.853-1.222-3.831-3.105.011-1.695 1.53-2.939 4.084-2.939 2.433 0 4.04 1.134 4.25 3.05zm10.895-6.198h-4.48L522.229 103h5.042l7.948-22.546h-4.491L524.871 98.2h-.231l-5.868-17.746zm33.582 7.2h4.161c-.694-4.425-4.524-7.508-9.511-7.508-5.901 0-10.326 4.338-10.326 11.603 0 7.134 4.227 11.559 10.447 11.559 5.581 0 9.577-3.589 9.577-9.401v-2.708h-9.148v3.192h5.196c-.066 3.215-2.213 5.251-5.603 5.251-3.776 0-6.363-2.829-6.363-7.937 0-5.075 2.631-7.893 6.275-7.893 2.719 0 4.568 1.453 5.295 3.842zM568.341 103h14.751v-3.424h-10.667v-6.153h9.82v-3.424h-9.82v-6.12h10.579v-3.425h-14.663V103zm21.912-16.91h-4.227l5.02 8.456-5.152 8.454h4.227l3.545-6.088 3.578 6.088h4.194l-5.185-8.454 5.097-8.455h-4.216l-3.468 6.242-3.413-6.242zm14.179 23.251h3.985v-9.005h.166c.627 1.233 1.937 2.961 4.843 2.961 3.985 0 6.969-3.159 6.969-8.73 0-5.636-3.072-8.696-6.98-8.696-2.983 0-4.227 1.794-4.832 3.016h-.232v-2.796h-3.919v23.25zm3.908-14.795c0-3.281 1.409-5.406 3.974-5.406 2.654 0 4.019 2.257 4.019 5.406 0 3.17-1.388 5.482-4.019 5.482-2.543 0-3.974-2.202-3.974-5.483zm22.843 8.784c4.954 0 8.102-3.49 8.102-8.718 0-5.24-3.148-8.741-8.102-8.741-4.954 0-8.102 3.5-8.102 8.74 0 5.23 3.148 8.719 8.102 8.719zm.022-3.192c-2.741 0-4.084-2.444-4.084-5.538 0-3.093 1.343-5.57 4.084-5.57 2.697 0 4.04 2.477 4.04 5.57 0 3.094-1.343 5.538-4.04 5.538zM642.668 103h3.985v-9.94c0-2.147 1.618-3.666 3.809-3.666.671 0 1.508.12 1.849.23V85.96a9.575 9.575 0 00-1.431-.11c-1.937 0-3.556 1.1-4.172 3.06h-.176v-2.818h-3.864V103zm21.642-16.91h-3.335v-4.05h-3.985v4.05h-2.4v3.083h2.4v9.402c-.022 3.181 2.29 4.744 5.284 4.656 1.134-.033 1.915-.253 2.345-.396l-.672-3.115c-.22.055-.671.154-1.167.154-1.002 0-1.805-.353-1.805-1.96v-8.74h3.335V86.09z" fill="#3A3A3A"/>
  </g>
  <defs>
    <clipPath id="Frame_16__clip0">
      <path fill="#fff" d="M0 0h1000v300H0z"/>
    </clipPath>
  </defs>
</svg>
